<svg width="344" height="180" viewBox="0 0 344 180" fill="none" xmlns="http://www.w3.org/2000/svg">
<path d="M74.87 163.1C74.87 164.69 71.7 167.15 66.97 167.15C62.24 167.15 59.25 165 59.25 163.1V155.84C59.25 154.71 62.25 152.43 66.97 152.43C71.71 152.43 74.87 154.84 74.87 155.84V163.1ZM84.53 163.1V155.84C84.53 153.12 78.7 148.53 67.13 148.53C55.23 148.53 49.64 153.43 49.64 155.84V163.1C49.64 166.68 56.24 170.81 67.13 170.81C78.02 170.81 84.53 167.14 84.53 163.1Z" fill="#21409A"/>
<path d="M135.88 170.36H130.32C128.9 170.36 128.11 170 128.11 169.36V157.02C128.11 154.88 125.58 152.66 120.85 152.66C116.11 152.66 113.13 154.88 113.13 157.29L113.08 169.36C113.08 170 112.3 170.36 110.88 170.36H105.47C104.04 170.36 103.26 170 103.26 169.36V150.35C103.26 149.71 104.04 149.35 105.47 149.35H109.81C110.64 149.35 111.01 149.57 111.28 150.03C111.55 150.44 111.92 150.62 112.19 150.62C112.56 150.62 117.8 148.52 122.81 148.52C131.36 148.52 137.91 151.74 137.91 156.46V169.35C137.93 170 137.29 170.36 135.88 170.36Z" fill="#21409A"/>
<path d="M181.17 157.55C181.17 157.87 180.76 158.05 180.07 158.05H166.9C166.2 158.05 165.79 157.86 165.79 157.55V156.23C165.79 153.7 168.54 152.27 173.93 152.27C179.41 152.27 181.17 154.29 181.17 156.23V157.55ZM190.93 160.16V156.62C190.93 152.59 185.67 148.43 173.89 148.43C163 148.43 155.98 152.9 155.98 156.62V163.65C155.98 167.32 163.09 171.05 174.81 171.05C183.77 171.05 188.27 168.81 189.64 168.05C190.51 167.54 191.07 166.96 190.15 166.59L187.03 165.36C186.11 165 185.38 165.14 184.68 165.46C183.4 166 179.22 167.08 174.81 167.08C170.53 167.08 165.79 165.46 165.79 163.88V162.83C165.79 162.3 165.97 162.11 166.48 162.11H186.52C189.32 162.11 190.93 161.43 190.93 160.16Z" fill="#21409A"/>
<path d="M234.75 163.12C234.75 164.71 231.83 166.91 227.11 166.91C222.38 166.91 218.98 164.71 218.98 163.12V156.22C218.98 154.08 222.56 152.34 227.29 152.34C232.03 152.34 234.76 154.08 234.76 156.22V163.12H234.75ZM244.27 163.26V156.37C244.27 151.96 238.13 148.62 227.24 148.62C215.94 148.62 209.37 152.51 209.37 156.37V178.37C209.37 179.01 210 179.36 211.43 179.36H217.26C218.68 179.36 219.47 179 219.47 178.37V170.56C219.47 169.43 219.8 169.6 220.99 169.92C222.64 170.37 224.64 170.84 227.25 170.84C238.13 170.84 244.27 167.3 244.27 163.26Z" fill="#21409A"/>
<path d="M286.88 164.17C286.88 166.12 283.38 167.25 279.15 167.25C274.79 167.25 270.93 166.08 270.93 164.22V162.6C270.93 160.93 274.98 159.31 279.2 159.31C283.93 159.31 286.89 160.79 286.89 162.52V164.17H286.88ZM296.11 169.46V156.47C296.11 151.89 290 148.55 279.8 148.55C277.68 148.55 275.71 148.79 273.27 149.2C270.97 149.51 268.15 150.14 267.14 150.5C266.1 150.86 265.25 151.09 266.04 151.68L268.85 153.74C269.67 154.2 270.32 153.8 271.42 153.54C274.55 152.81 276.68 152.59 279.94 152.59C285 152.59 286.68 154.85 287 155.9C287.09 156.27 286.9 156.67 286.49 156.58C285.99 156.44 281.86 156.03 279.66 156.03C270.97 156.03 261.33 158.49 261.33 162.57V164.01C261.33 168.09 270.37 170.94 279.57 170.94C283.97 170.94 287.13 169.48 287.55 169.48C287.9 169.48 288.22 169.79 288.55 170.01C288.76 170.16 289.51 170.31 289.6 170.4H293.89C295.33 170.38 296.11 170.09 296.11 169.46Z" fill="#21409A"/>
<path d="M341.31 152.5C340.33 153.27 339.79 153.12 338.91 152.99C337.67 152.8 337.23 152.53 334.08 152.53C329.08 152.53 326.32 154.88 326.32 156.47V169.32C326.32 169.95 325.53 170.31 324.11 170.31H318.72C317.3 170.31 316.52 169.95 316.52 169.32V156.47C316.52 152.62 322.87 148.62 333.77 148.62C339.28 148.62 342.09 149.77 343.1 150.13C344.07 150.5 344.02 150.63 343.28 151.22L341.31 152.5Z" fill="#21409A"/>
<path d="M17.72 170.86C12.6 170.86 5.73 169.88 1.32 166.82C0.300001 166.1 0.920002 165.75 1.59 165.56C2.32 165.34 5 164.53 5.95 164.53C6.79 164.53 11.02 167.1 17.43 167.1C18.83 167.1 24.09 166.33 24.09 164.17C24.09 162.42 20.12 162.39 20.12 162.39L11.63 161.93C7.86 161.71 1.75 160.63 1.75 156.18C1.75 150.08 12.61 148.64 17.82 148.64C24.56 148.64 29.9 150.62 30.93 151.16C31.79 151.65 30.93 152.1 30.48 152.37C30.13 152.59 27.98 153.99 27.12 153.99C25.91 153.99 23.35 152.22 18.37 152.22C15.9 152.22 11.43 153.22 11.43 155.29C11.43 156.73 14.37 156.94 14.37 156.94L22.94 157.21C28.11 157.39 33.8 159.24 33.8 163.5C33.83 169.47 23.15 170.86 17.72 170.86Z" fill="#21409A"/>
<path d="M237.83 21.41C186 11.68 141.42 19.78 138.23 39.51C135.05 59.22 174.47 83.12 226.28 92.83C278.12 102.57 322.69 94.48 325.88 74.75C329.07 55.03 289.64 31.14 237.83 21.41ZM230.05 86.9C193.62 79.32 166.01 59.91 168.39 43.55C170.79 27.19 202.25 20.09 238.69 27.68C275.12 35.27 307.69 55.53 305.32 71.88C302.94 88.24 266.5 94.49 230.05 86.9Z" fill="url(#paint0_linear)"/>
<path d="M242.93 34.89C213.49 63.79 200.04 97.45 212.84 110.08C225.66 122.72 259.88 109.51 289.29 80.61C318.71 51.71 332.17 18.06 319.36 5.41999C306.56 -7.21001 272.33 5.99 242.93 34.89ZM283.67 76.09C261.95 97.59 234.77 109.09 225.69 98.18C216.61 87.24 229.08 58.09 250.79 36.57C272.51 15.06 297.48 6.46999 306.55 17.38C315.64 28.29 305.39 54.57 283.67 76.09Z" fill="url(#paint1_linear)"/>
<path d="M247.26 89.49C241.62 88.97 235.83 88.11 230.05 86.91C193.62 79.33 166.01 59.92 168.39 43.56C170.79 27.2 202.25 20.1 238.69 27.69C252.15 30.49 265.08 35.03 275.92 40.46L279.32 33.12C267.05 28.31 252.97 24.26 237.83 21.42C186 11.69 141.42 19.79 138.23 39.52C135.05 59.23 174.47 83.13 226.28 92.84C232.76 94.06 239.13 95 245.31 95.67L247.26 89.49Z" fill="url(#paint2_linear)"/>
<defs>
<linearGradient id="paint0_linear" x1="136.428" y1="38.7843" x2="325.896" y2="75.1072" gradientUnits="userSpaceOnUse">
<stop stop-color="#21409A"/>
<stop offset="0.0971" stop-color="#1D439C"/>
<stop offset="0.2323" stop-color="#054DA2"/>
<stop offset="0.3898" stop-color="#005CAB"/>
<stop offset="0.5642" stop-color="#006FB9"/>
<stop offset="0.7526" stop-color="#0087CE"/>
<stop offset="0.9498" stop-color="#00A4E7"/>
<stop offset="1" stop-color="#00AEEF"/>
</linearGradient>
<linearGradient id="paint1_linear" x1="319.461" y1="7.671" x2="227.482" y2="94.0164" gradientUnits="userSpaceOnUse">
<stop stop-color="#21409A"/>
<stop offset="0.0971" stop-color="#1E439C"/>
<stop offset="0.2323" stop-color="#0F4DA2"/>
<stop offset="0.3898" stop-color="#005CAB"/>
<stop offset="0.5642" stop-color="#0070BA"/>
<stop offset="0.7526" stop-color="#0089CE"/>
<stop offset="0.9498" stop-color="#00A9E8"/>
<stop offset="1" stop-color="#00B3F0"/>
</linearGradient>
<linearGradient id="paint2_linear" x1="136.428" y1="38.7842" x2="325.896" y2="75.1072" gradientUnits="userSpaceOnUse">
<stop stop-color="#21409A"/>
<stop offset="0.0971" stop-color="#1D439C"/>
<stop offset="0.2323" stop-color="#054DA2"/>
<stop offset="0.3898" stop-color="#005CAB"/>
<stop offset="0.5642" stop-color="#006FB9"/>
<stop offset="0.7526" stop-color="#0087CE"/>
<stop offset="0.9498" stop-color="#00A4E7"/>
<stop offset="1" stop-color="#00AEEF"/>
</linearGradient>
</defs>
</svg>
